# Blender v2.83.1 OBJ File: ''
# www.blender.org
mtllib turnEnd.mtl
o 실린더_실린더.005
v 3.678087 1.543843 1.795687
v 3.812935 1.543843 1.232432
v 3.812829 1.045047 1.246806
v 3.698172 1.045047 1.786862
v 3.535102 1.045047 -1.527913
v 3.535102 1.543843 -1.527913
v 2.120889 1.045047 -1.527914
v 1.827995 1.045047 1.290605
v 2.161149 1.543843 2.310815
v 1.827995 1.543843 1.298752
v 2.179008 1.045047 2.310815
v 3.433412 1.045047 2.310815
v 3.407350 1.543843 2.310815
v 3.824495 1.045047 -0.343590
v 3.824659 1.543843 -0.366001
v 1.827995 1.543843 -0.365528
v 2.152070 1.543843 -1.527914
v 1.827995 1.045047 -0.348785
vt 0.899021 0.516932
vt 0.799199 0.519765
vt 0.799311 0.218144
vt 0.899134 0.213788
vt 1.000000 0.000079
vt 0.999855 0.194502
vt 0.900025 0.196052
vt 0.900178 0.000000
vt 0.999857 0.511915
vt 0.900027 0.508718
vt 0.316095 0.000000
vt 0.370281 0.098270
vt 0.397270 0.205720
vt 0.399616 0.510649
vt 0.341663 0.732304
vt 0.064861 0.732304
vt 0.000000 0.510558
vt 0.000000 0.193068
vt 0.066678 0.000000
vt 0.099830 0.975010
vt 0.000000 0.970038
vt 0.000000 0.732304
vt 0.099830 0.735711
vt 0.900025 0.730214
vt 0.800134 0.729747
vt 0.799462 0.624627
vt 0.899336 0.626635
vt 0.900157 0.732370
vt 1.000000 0.732243
vt 0.799199 0.730214
vt 0.899029 0.730214
vt 0.899029 1.000000
vt 0.799199 0.994052
vt 0.800205 0.000107
vt 0.900025 0.000000
vt 0.401951 0.202978
vt 0.424898 0.099953
vt 0.477888 0.000000
vt 0.728947 0.000000
vt 0.799199 0.194623
vt 0.799199 0.507364
vt 0.740579 0.732304
vt 0.457536 0.732304
vt 0.399616 0.506374
vn 1.0000 0.0000 0.0073
vn -0.9476 -0.0196 0.3190
vn -1.0000 0.0000 0.0000
vn 0.0000 1.0000 0.0000
vn -0.0000 -0.0000 1.0000
vn 0.8883 0.0370 0.4578
vn 0.9752 0.0208 0.2205
vn -0.9667 0.0259 -0.2547
vn 0.0000 -0.0000 -1.0000
vn 0.9709 -0.0055 -0.2396
vn 0.0000 -1.0000 0.0000
usemtl 매테리얼.003
s off
f 2/1/1 3/2/1 14/3/1 15/4/1
f 9/5/2 10/6/2 8/7/2 11/8/2
f 8/7/3 10/6/3 16/9/3 18/10/3
f 13/11/4 1/12/4 2/13/4 15/14/4 6/15/4 17/16/4 16/17/4 10/18/4 9/19/4
f 12/20/5 13/21/5 9/22/5 11/23/5
f 13/24/6 12/25/6 4/26/6 1/27/6
f 1/27/7 4/26/7 3/2/7 2/1/7
f 7/28/8 18/10/8 16/9/8 17/29/8
f 6/30/9 5/31/9 7/32/9 17/33/9
f 5/34/10 6/35/10 15/4/10 14/3/10
f 3/36/11 4/37/11 12/38/11 11/39/11 8/40/11 18/41/11 7/42/11 5/43/11 14/44/11
