# Blender v2.83.1 OBJ File: 'Minion.blend'
# www.blender.org
mtllib Minion.mtl
o 실린더
v 0.000000 0.045601 -1.371778
v 0.000000 -0.045601 -1.371778
v 0.195090 0.045601 -1.345419
v 0.195090 -0.045601 -1.345419
v 0.382683 0.045601 -1.267357
v 0.382683 -0.045601 -1.267357
v 0.555570 0.045601 -1.140591
v 0.555570 -0.045601 -1.140591
v 0.707107 0.045601 -0.969993
v 0.707107 -0.045601 -0.969993
v 0.831470 0.045601 -0.762119
v 0.831470 -0.045601 -0.762119
v 0.923880 0.045601 -0.524956
v 0.923880 -0.045601 -0.524956
v 0.980785 0.045601 -0.267620
v 0.980785 -0.045601 -0.267620
v 1.000000 0.045601 0.000000
v 1.000000 -0.045601 0.000000
v 0.980785 0.045601 0.267621
v 0.980785 -0.045601 0.267621
v 0.923880 0.045601 0.524957
v 0.923880 -0.045601 0.524957
v 0.831470 0.045601 0.762119
v 0.831470 -0.045601 0.762119
v 0.707107 0.045601 0.969993
v 0.707107 -0.045601 0.969993
v 0.555570 0.045601 1.140592
v 0.555570 -0.045601 1.140592
v 0.382683 0.045601 1.267358
v 0.382683 -0.045601 1.267358
v 0.195090 0.045601 1.345419
v 0.195090 -0.045601 1.345419
v -0.000000 0.045601 1.371778
v -0.000000 -0.045601 1.371778
v -0.195091 0.045601 1.345419
v -0.195091 -0.045601 1.345419
v -0.382684 0.045601 1.267357
v -0.382684 -0.045601 1.267357
v -0.555571 0.045601 1.140591
v -0.555571 -0.045601 1.140591
v -0.707107 0.045601 0.969993
v -0.707107 -0.045601 0.969993
v -0.831470 0.045601 0.762118
v -0.831470 -0.045601 0.762118
v -0.923880 0.045601 0.524956
v -0.923880 -0.045601 0.524956
v -0.980785 0.045601 0.267619
v -0.980785 -0.045601 0.267619
v -1.000000 0.045601 -0.000001
v -1.000000 -0.045601 -0.000001
v -0.980785 0.045601 -0.267622
v -0.980785 -0.045601 -0.267622
v -0.923879 0.045601 -0.524958
v -0.923879 -0.045601 -0.524958
v -0.831469 0.045601 -0.762120
v -0.831469 -0.045601 -0.762120
v -0.707106 0.045601 -0.969994
v -0.707106 -0.045601 -0.969994
v -0.555569 0.045601 -1.140592
v -0.555569 -0.045601 -1.140592
v -0.382682 0.045601 -1.267358
v -0.382682 -0.045601 -1.267358
v -0.195089 0.045601 -1.345420
v -0.195089 -0.045601 -1.345420
vt 0.042726 0.813094
vt 0.022853 0.813094
vt 0.022853 0.769985
vt 0.042726 0.769985
vt 0.022853 0.730044
vt 0.042726 0.730044
vt 0.022853 0.694807
vt 0.042726 0.694807
vt 0.977147 0.541329
vt 0.957274 0.541329
vt 0.957274 0.505410
vt 0.977147 0.505410
vt 0.957274 0.460594
vt 0.977147 0.460594
vt 0.957274 0.408602
vt 0.977147 0.408602
vt 0.957274 0.351434
vt 0.977147 0.351434
vt 0.957274 0.291285
vt 0.977147 0.291285
vt 0.957274 0.230468
vt 0.977147 0.230468
vt 0.957274 0.171320
vt 0.977147 0.171320
vt 0.957274 0.116113
vt 0.977147 0.116113
vt 0.957274 0.066969
vt 0.977147 0.066969
vt 0.957274 0.025778
vt 0.977147 0.025778
vt 0.000994 0.696755
vt 0.020866 0.696755
vt 0.020866 0.731992
vt 0.000994 0.731992
vt 0.020866 0.771933
vt 0.000994 0.771933
vt 0.020866 0.815043
vt 0.000994 0.815043
vt 0.020866 0.859665
vt 0.000994 0.859665
vt 0.020866 0.904084
vt 0.000994 0.904084
vt 0.020866 0.946593
vt 0.000994 0.946593
vt 0.020866 0.985560
vt 0.000994 0.985560
vt 0.999006 0.503614
vt 0.979134 0.503614
vt 0.979134 0.458798
vt 0.999006 0.458798
vt 0.979134 0.406806
vt 0.999006 0.406806
vt 0.979134 0.349638
vt 0.999006 0.349638
vt 0.979134 0.289489
vt 0.999006 0.289489
vt 0.979134 0.228672
vt 0.999006 0.228672
vt 0.979134 0.169524
vt 0.999006 0.169524
vt 0.979134 0.114317
vt 0.999006 0.114317
vt 0.979134 0.065173
vt 0.999006 0.065173
vt 0.979134 0.023982
vt 0.999006 0.023982
vt 0.042726 0.944645
vt 0.022853 0.944645
vt 0.022853 0.902135
vt 0.042726 0.902135
vt 0.195840 0.036590
vt 0.238343 0.030277
vt 0.280874 0.035911
vt 0.321798 0.053276
vt 0.359544 0.081704
vt 0.392659 0.120102
vt 0.419872 0.166995
vt 0.440137 0.220582
vt 0.452676 0.278802
vt 0.457005 0.339418
vt 0.452959 0.400101
vt 0.440694 0.458519
vt 0.420680 0.512427
vt 0.393688 0.559753
vt 0.360753 0.598679
vt 0.323142 0.627708
vt 0.282300 0.645725
vt 0.239797 0.652038
vt 0.197266 0.646404
vt 0.156342 0.629039
vt 0.118596 0.600611
vt 0.085481 0.562213
vt 0.058268 0.515319
vt 0.038003 0.461733
vt 0.025465 0.403513
vt 0.021135 0.342897
vt 0.025181 0.282214
vt 0.037446 0.223796
vt 0.057460 0.169888
vt 0.084453 0.122562
vt 0.117388 0.083636
vt 0.154998 0.054607
vt 0.022853 0.857716
vt 0.042726 0.857716
vt 0.717503 0.652039
vt 0.674980 0.645865
vt 0.634079 0.627982
vt 0.596373 0.599077
vt 0.563311 0.560259
vt 0.536163 0.513022
vt 0.515973 0.459180
vt 0.503516 0.400803
vt 0.499271 0.340133
vt 0.503401 0.279503
vt 0.515749 0.221242
vt 0.535838 0.167590
vt 0.562897 0.120607
vt 0.595886 0.082101
vt 0.633538 0.053549
vt 0.674405 0.036050
vt 0.716918 0.030277
vt 0.759441 0.036450
vt 0.800342 0.054333
vt 0.838048 0.083239
vt 0.871110 0.122056
vt 0.898258 0.169293
vt 0.918448 0.223135
vt 0.930905 0.281512
vt 0.935150 0.342182
vt 0.931019 0.402812
vt 0.918672 0.461073
vt 0.898583 0.514726
vt 0.871524 0.561708
vt 0.838534 0.600215
vt 0.800883 0.628766
vt 0.760015 0.646265
vn -0.1339 0.0000 0.9910
vn -0.3842 0.0000 0.9233
vn -0.5913 0.0000 0.8064
vn -0.7476 0.0000 0.6641
vn -0.8582 0.0000 0.5134
vn -0.9318 0.0000 0.3631
vn -0.9764 0.0000 0.2159
vn -0.9974 0.0000 0.0716
vn -0.9974 0.0000 -0.0716
vn -0.9764 0.0000 -0.2159
vn -0.9318 0.0000 -0.3631
vn -0.8582 0.0000 -0.5134
vn -0.7476 0.0000 -0.6641
vn -0.5913 0.0000 -0.8064
vn -0.3842 0.0000 -0.9233
vn -0.1339 0.0000 -0.9910
vn 0.1339 0.0000 -0.9910
vn 0.3842 0.0000 -0.9233
vn 0.5913 0.0000 -0.8064
vn 0.7476 0.0000 -0.6641
vn 0.8582 0.0000 -0.5134
vn 0.9318 0.0000 -0.3631
vn 0.9764 0.0000 -0.2159
vn 0.9974 0.0000 -0.0716
vn 0.9974 0.0000 0.0716
vn 0.9764 0.0000 0.2159
vn 0.9318 0.0000 0.3631
vn 0.8582 0.0000 0.5134
vn 0.7476 0.0000 0.6641
vn 0.5913 0.0000 0.8064
vn 0.0000 1.0000 -0.0000
vn 0.3842 0.0000 0.9233
vn 0.1339 0.0000 0.9910
vn 0.0000 -1.0000 -0.0000
usemtl 매테리얼
s off
f 1/1/1 2/2/1 4/3/1 3/4/1
f 3/4/2 4/3/2 6/5/2 5/6/2
f 5/6/3 6/5/3 8/7/3 7/8/3
f 7/9/4 8/10/4 10/11/4 9/12/4
f 9/12/5 10/11/5 12/13/5 11/14/5
f 11/14/6 12/13/6 14/15/6 13/16/6
f 13/16/7 14/15/7 16/17/7 15/18/7
f 15/18/8 16/17/8 18/19/8 17/20/8
f 17/20/9 18/19/9 20/21/9 19/22/9
f 19/22/10 20/21/10 22/23/10 21/24/10
f 21/24/11 22/23/11 24/25/11 23/26/11
f 23/26/12 24/25/12 26/27/12 25/28/12
f 25/28/13 26/27/13 28/29/13 27/30/13
f 27/31/14 28/32/14 30/33/14 29/34/14
f 29/34/15 30/33/15 32/35/15 31/36/15
f 31/36/16 32/35/16 34/37/16 33/38/16
f 33/38/17 34/37/17 36/39/17 35/40/17
f 35/40/18 36/39/18 38/41/18 37/42/18
f 37/42/19 38/41/19 40/43/19 39/44/19
f 39/44/20 40/43/20 42/45/20 41/46/20
f 41/47/21 42/48/21 44/49/21 43/50/21
f 43/50/22 44/49/22 46/51/22 45/52/22
f 45/52/23 46/51/23 48/53/23 47/54/23
f 47/54/24 48/53/24 50/55/24 49/56/24
f 49/56/25 50/55/25 52/57/25 51/58/25
f 51/58/26 52/57/26 54/59/26 53/60/26
f 53/60/27 54/59/27 56/61/27 55/62/27
f 55/62/28 56/61/28 58/63/28 57/64/28
f 57/64/29 58/63/29 60/65/29 59/66/29
f 59/67/30 60/68/30 62/69/30 61/70/30
f 4/71/31 2/72/31 64/73/31 62/74/31 60/75/31 58/76/31 56/77/31 54/78/31 52/79/31 50/80/31 48/81/31 46/82/31 44/83/31 42/84/31 40/85/31 38/86/31 36/87/31 34/88/31 32/89/31 30/90/31 28/91/31 26/92/31 24/93/31 22/94/31 20/95/31 18/96/31 16/97/31 14/98/31 12/99/31 10/100/31 8/101/31 6/102/31
f 61/70/32 62/69/32 64/103/32 63/104/32
f 63/104/33 64/103/33 2/2/33 1/1/33
f 1/105/34 3/106/34 5/107/34 7/108/34 9/109/34 11/110/34 13/111/34 15/112/34 17/113/34 19/114/34 21/115/34 23/116/34 25/117/34 27/118/34 29/119/34 31/120/34 33/121/34 35/122/34 37/123/34 39/124/34 41/125/34 43/126/34 45/127/34 47/128/34 49/129/34 51/130/34 53/131/34 55/132/34 57/133/34 59/134/34 61/135/34 63/136/34
